<?xml version="1.0" encoding="UTF-8"?>
<!DOCTYPE svg PUBLIC "-//W3C//DTD SVG 1.1//EN" "http://www.w3.org/Graphics/SVG/1.1/DTD/svg11.dtd">
<svg xmlns="http://www.w3.org/2000/svg" version="1.1" width="500px" height="500px" style="shape-rendering:geometricPrecision; text-rendering:geometricPrecision; image-rendering:optimizeQuality; fill-rule:evenodd; clip-rule:evenodd" xmlns:xlink="http://www.w3.org/1999/xlink">
<g><path style="opacity:0.994" fill="#6fbc68" d="M 105.5,-0.5 C 201.5,-0.5 297.5,-0.5 393.5,-0.5C 457.571,4.90435 492.904,39.571 499.5,103.5C 499.5,126.5 499.5,149.5 499.5,172.5C 482.632,180.013 465.298,186.346 447.5,191.5C 461.692,164.379 466.525,135.712 462,105.5C 452.332,80.4999 434.498,64.6666 408.5,58C 392.618,54.369 376.618,53.7023 360.5,56C 333.132,63.7003 315.299,81.2003 307,108.5C 303.04,125.737 302.54,143.071 305.5,160.5C 291.153,153.328 276.153,147.828 260.5,144C 246.777,142.543 233.444,144.043 220.5,148.5C 220.727,120.686 211.06,96.8527 191.5,77C 172.726,64.5752 152.059,59.2419 129.5,61C 114.304,62.7124 99.9702,67.0458 86.5,74C 69.9493,86.5868 60.7827,103.42 59,124.5C 55.4945,147.427 57.6612,169.761 65.5,191.5C 42.4305,185.964 20.4305,177.631 -0.5,166.5C -0.5,145.5 -0.5,124.5 -0.5,103.5C 6.09585,39.571 41.4292,4.90435 105.5,-0.5 Z"/></g>
<g><path style="opacity:1" fill="#577ab8" d="M 447.5,191.5 C 439.895,204.285 430.562,215.785 419.5,226C 413.1,230.868 406.1,234.701 398.5,237.5C 400.007,239.969 399.673,242.135 397.5,244C 394.854,244.497 392.187,244.664 389.5,244.5C 386.135,245.04 382.802,245.706 379.5,246.5C 373.158,246.861 371.158,244.028 373.5,238C 369.106,236.591 364.772,235.091 360.5,233.5C 354.01,200.163 335.677,175.83 305.5,160.5C 302.54,143.071 303.04,125.737 307,108.5C 315.299,81.2003 333.132,63.7003 360.5,56C 376.618,53.7023 392.618,54.369 408.5,58C 434.498,64.6666 452.332,80.4999 462,105.5C 466.525,135.712 461.692,164.379 447.5,191.5 Z"/></g>
<g><path style="opacity:1" fill="#ad444b" d="M 220.5,148.5 C 190.892,165.04 177.559,190.374 180.5,224.5C 165.968,220.08 151.301,215.913 136.5,212C 132.833,211.333 129.167,211.333 125.5,212C 122.71,214.21 121.877,217.044 123,220.5C 124.793,223.295 126.96,225.795 129.5,228C 140.014,233.99 150.681,239.49 161.5,244.5C 155.254,248.455 148.588,251.622 141.5,254C 142.077,259.923 139.41,262.756 133.5,262.5C 130.14,262.384 126.807,262.051 123.5,261.5C 119.746,261.443 116.579,260.11 114,257.5C 113.349,255.765 113.515,254.098 114.5,252.5C 91.843,237.184 75.5097,216.85 65.5,191.5C 57.6612,169.761 55.4945,147.427 59,124.5C 60.7827,103.42 69.9493,86.5868 86.5,74C 99.9702,67.0458 114.304,62.7124 129.5,61C 152.059,59.2419 172.726,64.5752 191.5,77C 211.06,96.8527 220.727,120.686 220.5,148.5 Z"/></g>
<g><path style="opacity:1" fill="#fcd007" d="M 379.5,82.5 C 381.722,82.178 383.556,82.8446 385,84.5C 390.376,92.753 395.876,100.92 401.5,109C 414.5,109.333 427.5,109.667 440.5,110C 440.957,110.414 441.291,110.914 441.5,111.5C 431.5,120.5 421.5,129.5 411.5,138.5C 416.24,151.053 420.573,163.719 424.5,176.5C 409.181,170.008 394.181,162.675 379.5,154.5C 366.167,161.167 352.833,167.833 339.5,174.5C 338.386,173.277 338.219,171.944 339,170.5C 342.888,159.058 347.055,147.725 351.5,136.5C 343.151,127.317 334.318,118.651 325,110.5C 324.517,109.552 324.351,108.552 324.5,107.5C 337.85,107.833 351.183,107.499 364.5,106.5C 370.022,98.7802 375.022,90.7802 379.5,82.5 Z"/></g>
<g><path style="opacity:1" fill="#fdfafa" d="M 183.5,107.5 C 187.839,106.846 191.673,107.846 195,110.5C 196.042,113.804 194.875,115.971 191.5,117C 180.825,117.428 170.159,117.928 159.5,118.5C 165.243,137.023 164.743,155.357 158,173.5C 149.126,184.228 138.959,185.394 127.5,177C 122.455,172.407 118.788,166.907 116.5,160.5C 117.437,156.717 119.771,155.217 123.5,156C 126.457,160.08 129.29,164.247 132,168.5C 138.142,173.713 144.142,173.713 150,168.5C 154.608,152.52 154.608,136.52 150,120.5C 137.828,119.619 125.662,120.285 113.5,122.5C 107.371,119.84 107.038,116.673 112.5,113C 136.271,110.516 159.937,108.683 183.5,107.5 Z"/></g>
<g><path style="opacity:1" fill="#000000" d="M 305.5,160.5 C 335.677,175.83 354.01,200.163 360.5,233.5C 360.189,240.09 360.522,246.59 361.5,253C 366.265,254.199 370.931,255.699 375.5,257.5C 376.988,253.875 378.321,250.209 379.5,246.5C 382.802,245.706 386.135,245.04 389.5,244.5C 387.209,250.657 386.042,256.99 386,263.5C 396.044,270.543 404.377,279.21 411,289.5C 412.04,297.131 412.706,304.798 413,312.5C 424.58,326.238 428.58,341.905 425,359.5C 423.134,368.43 420.467,377.097 417,385.5C 410.999,387.256 408.665,384.923 410,378.5C 413.678,368.291 415.845,357.791 416.5,347C 416.558,342.747 416.058,338.58 415,334.5C 413,330.5 411,326.5 409,322.5C 405.914,329.667 401.581,336.001 396,341.5C 394.537,346.89 392.87,352.223 391,357.5C 384.685,369.463 377.851,381.13 370.5,392.5C 375.161,394.666 379.827,396.833 384.5,399C 387.207,400.864 388.041,403.364 387,406.5C 380.575,417.25 371.409,424.75 359.5,429C 354.847,430.323 350.181,431.656 345.5,433C 337.167,433.333 328.833,433.667 320.5,434C 295.458,448.339 268.458,454.006 239.5,451C 216.112,449.313 194.112,442.98 173.5,432C 159.473,424.309 149.307,413.142 143,398.5C 141.731,394.859 140.564,391.192 139.5,387.5C 131.5,388.167 127.833,384.5 128.5,376.5C 128.811,371.152 129.811,365.986 131.5,361C 127.654,359.464 123.654,358.631 119.5,358.5C 119.933,361.166 120.433,363.832 121,366.5C 126.065,379.694 130.731,393.027 135,406.5C 138.01,418.467 134.843,428.3 125.5,436C 121.652,438.905 117.819,439.072 114,436.5C 113.75,432.056 115.916,429.222 120.5,428C 123.106,426.062 124.939,423.562 126,420.5C 126.772,415.096 126.439,409.762 125,404.5C 120.47,392.576 116.136,380.576 112,368.5C 111.088,364.205 110.421,359.872 110,355.5C 85.7025,343.795 77.7025,324.795 86,298.5C 93.8181,282.537 106.651,275.204 124.5,276.5C 124.726,271.438 124.392,266.438 123.5,261.5C 126.807,262.051 130.14,262.384 133.5,262.5C 134.002,268.199 134.669,273.865 135.5,279.5C 142.651,282.653 148.984,286.986 154.5,292.5C 159.584,278.329 166.751,265.329 176,253.5C 176.483,252.552 176.649,251.552 176.5,250.5C 171.448,248.653 166.448,246.653 161.5,244.5C 150.681,239.49 140.014,233.99 129.5,228C 126.96,225.795 124.793,223.295 123,220.5C 121.877,217.044 122.71,214.21 125.5,212C 129.167,211.333 132.833,211.333 136.5,212C 151.301,215.913 165.968,220.08 180.5,224.5C 177.559,190.374 190.892,165.04 220.5,148.5C 233.444,144.043 246.777,142.543 260.5,144C 276.153,147.828 291.153,153.328 305.5,160.5 Z"/></g>
<g><path style="opacity:0.997" fill="#43a83a" d="M -0.5,166.5 C 20.4305,177.631 42.4305,185.964 65.5,191.5C 75.5097,216.85 91.843,237.184 114.5,252.5C 113.515,254.098 113.349,255.765 114,257.5C 116.579,260.11 119.746,261.443 123.5,261.5C 124.392,266.438 124.726,271.438 124.5,276.5C 106.651,275.204 93.8181,282.537 86,298.5C 77.7025,324.795 85.7025,343.795 110,355.5C 110.421,359.872 111.088,364.205 112,368.5C 116.136,380.576 120.47,392.576 125,404.5C 126.439,409.762 126.772,415.096 126,420.5C 124.939,423.562 123.106,426.062 120.5,428C 115.916,429.222 113.75,432.056 114,436.5C 117.819,439.072 121.652,438.905 125.5,436C 134.843,428.3 138.01,418.467 135,406.5C 130.731,393.027 126.065,379.694 121,366.5C 120.433,363.832 119.933,361.166 119.5,358.5C 123.654,358.631 127.654,359.464 131.5,361C 129.811,365.986 128.811,371.152 128.5,376.5C 127.833,384.5 131.5,388.167 139.5,387.5C 140.564,391.192 141.731,394.859 143,398.5C 149.307,413.142 159.473,424.309 173.5,432C 194.112,442.98 216.112,449.313 239.5,451C 268.458,454.006 295.458,448.339 320.5,434C 328.833,433.667 337.167,433.333 345.5,433C 350.181,431.656 354.847,430.323 359.5,429C 371.409,424.75 380.575,417.25 387,406.5C 388.041,403.364 387.207,400.864 384.5,399C 379.827,396.833 375.161,394.666 370.5,392.5C 377.851,381.13 384.685,369.463 391,357.5C 392.87,352.223 394.537,346.89 396,341.5C 401.581,336.001 405.914,329.667 409,322.5C 411,326.5 413,330.5 415,334.5C 416.058,338.58 416.558,342.747 416.5,347C 415.845,357.791 413.678,368.291 410,378.5C 408.665,384.923 410.999,387.256 417,385.5C 420.467,377.097 423.134,368.43 425,359.5C 428.58,341.905 424.58,326.238 413,312.5C 412.706,304.798 412.04,297.131 411,289.5C 404.377,279.21 396.044,270.543 386,263.5C 386.042,256.99 387.209,250.657 389.5,244.5C 392.187,244.664 394.854,244.497 397.5,244C 399.673,242.135 400.007,239.969 398.5,237.5C 406.1,234.701 413.1,230.868 419.5,226C 430.562,215.785 439.895,204.285 447.5,191.5C 465.298,186.346 482.632,180.013 499.5,172.5C 499.5,247.167 499.5,321.833 499.5,396.5C 492.833,458.5 458.5,492.833 396.5,499.5C 298.5,499.5 200.5,499.5 102.5,499.5C 40.5,492.833 6.16667,458.5 -0.5,396.5C -0.5,319.833 -0.5,243.167 -0.5,166.5 Z"/></g>
<g><path style="opacity:1" fill="#42a23a" d="M 360.5,233.5 C 364.772,235.091 369.106,236.591 373.5,238C 371.158,244.028 373.158,246.861 379.5,246.5C 378.321,250.209 376.988,253.875 375.5,257.5C 370.931,255.699 366.265,254.199 361.5,253C 360.522,246.59 360.189,240.09 360.5,233.5 Z"/></g>
<g><path style="opacity:1" fill="#43a53a" d="M 161.5,244.5 C 166.448,246.653 171.448,248.653 176.5,250.5C 176.649,251.552 176.483,252.552 176,253.5C 166.751,265.329 159.584,278.329 154.5,292.5C 148.984,286.986 142.651,282.653 135.5,279.5C 134.669,273.865 134.002,268.199 133.5,262.5C 139.41,262.756 142.077,259.923 141.5,254C 148.588,251.622 155.254,248.455 161.5,244.5 Z"/></g>
</svg>
